# xmcd
#
# Track frame offsets:
#	150
#	18056
#	31500
#	52164
#	72625
#	91162
#	110915
#	128303
#	143207
#	158780
#
# Disc length: 2309 seconds
#
# Revision: 1
# Processed by: cddbd v1.5.2PL0 Copyright (c) Steve Scherf et al.
# Submitted via: audiograbber 1.83.01
#
DISCID=7d09030a
DTITLE=пападопоукоу кема [1997] - ецы еилаи г кема
DYEAR=1997
DGENRE=
TTITLE0=с' евы
TTITLE1=тгм акгхеиа
TTITLE2=ти яоко паифы стг фыг соу
TTITLE3=хаула
TTITLE4=йаи ха соу кеиьы
TTITLE5=кееи йаи некееи
TTITLE6=поу пгце
TTITLE7=ас' та ма паме
TTITLE8=апо сглеяа йаи пеяа
TTITLE9=ецы еилаи г кема
EXTD=
EXTT0=
EXTT1=
EXTT2=
EXTT3=
EXTT4=
EXTT5=
EXTT6=
EXTT7=
EXTT8=
EXTT9=
PLAYORDER=
